# xmcd
#
# Track frame offsets: 
#        187
#        10762
#        24627
#        35435
#        47495
#        67917
#        91330
#        137980
#        157077
#        164475
#        185282
#
# Disc length: 2768 seconds
#
# Revision: 2
# Processed by: cddbd v1.5.2PL0 Copyright (c) Steve Scherf et al.
# Submitted via: ExactAudioCopy v0.99pb4
#
DISCID=890ace0b
DTITLE=Voices Of Praise - Strong And Mighty Hands
DYEAR=1990
DGENRE=Gospel
TTITLE0=O Lord Our God
TTITLE1=We Celebrate
TTITLE2=Unto The King
TTITLE3=You Are The One
TTITLE4=Strong And Mighty Hands
TTITLE5=Whom Have I (Psalm 73)
TTITLE6=Awesome Medley
TTITLE7=Ascribe To The Lord
TTITLE8=You Alone Are Worthy (Worship Interlude)
TTITLE9=Great And Marvelous 
TTITLE10=Awesome Reprise
EXTD=
EXTT0=
EXTT1=
EXTT2=
EXTT3=
EXTT4=
EXTT5=
EXTT6=
EXTT7=
EXTT8=
EXTT9=
EXTT10=
PLAYORDER=
